<?xml version="1.0" encoding="UTF-8"?>
<svg id="_레이어_2" data-name="레이어 2" xmlns="http://www.w3.org/2000/svg" viewBox="0 0 438.04 278.39">
  <defs>
    <style>
      .cls-1 {
        fill: #ad99c8;
      }

      .cls-2 {
        fill: #f1e6f2;
      }
    </style>
  </defs>
  <g id="_레이어_1-2" data-name="레이어 1">
    <g>
      <circle class="cls-2" cx="219.24" cy="145.54" r="132.86"/>
      <g>
        <path class="cls-1" d="M178.87,18.92c-1-3.87.82-7.33,4.46-8.27,1.67-.43,3.04-.16,4.06.66l-.34-1.3,3.87-1,3.3,12.73-3.87,1-.34-1.3c-.5,1.22-1.56,2.12-3.23,2.55-3.65.95-6.92-1.2-7.92-5.07ZM188.78,16.36c-.51-1.95-2.09-3.05-3.98-2.56-1.85.48-2.65,2.19-2.15,4.15.51,1.95,2.05,3.06,3.89,2.58,1.89-.49,2.74-2.22,2.23-4.17Z"/>
        <path class="cls-1" d="M196.43,8.08l3.96-.54.18,1.33c.64-1.15,1.75-1.91,3.42-2.14.73-.1,1.21-.12,1.74-.01l.55,3.7c-.6-.21-1.31-.27-2.08-.17-2.11.29-3.22,1.66-2.95,3.64l.91,6.67-3.96.54-1.78-13.03Z"/>
        <path class="cls-1" d="M218.67,9.6l-2.6.1.38,9.71-3.99.16-.38-9.71-2.6.1-.13-3.43,2.6-.1-.15-3.9,3.99-.15.15,3.9,2.6-.1.13,3.43Z"/>
        <path class="cls-1" d="M226.17,19.61l-3.99-.16.51-13.18,3.99.16-.52,13.18ZM227.29,2.54c-.06,1.41-1.13,2.4-2.54,2.35-1.41-.06-2.4-1.13-2.35-2.54.05-1.41,1.13-2.4,2.54-2.35,1.41.05,2.4,1.13,2.35,2.54Z"/>
        <path class="cls-1" d="M242.97,12.15l-3.83-.51c-.03-.82-.87-1.43-2.03-1.58-1.2-.16-2.12.15-2.2.72-.09.65.74,1.07,2.92,1.72,3.77,1.09,4.98,2.54,4.68,4.79-.36,2.67-3.38,3.94-6.69,3.5-3.4-.45-5.76-2.49-5.53-5.24l3.83.51c.02.86.93,1.55,2.17,1.71,1.27.17,2.26-.17,2.34-.77.08-.62-.75-1.14-2.96-1.77-3.05-.88-4.97-2.11-4.62-4.76.34-2.54,3.2-3.79,6.51-3.35,3.25.43,5.59,2.42,5.4,5.02Z"/>
        <path class="cls-1" d="M255.31,14.48l-2.53-.61-2.27,9.45-3.89-.93,2.27-9.45-2.53-.61.8-3.34,2.53.61.91-3.8,3.89.93-.91,3.8,2.53.61-.8,3.34Z"/>
        <path class="cls-1" d="M269.04,22.44l-1.86-7.87,4.42,1.89.87,4.47,3.79-2.48,4.17,1.78-6.84,4.06,1.91,8.14-4.42-1.89-.95-4.7-4.03,2.57-4.17-1.78,7.09-4.19Z"/>
        <path class="cls-1" d="M287.65,31.6c2.24-3.3,6.04-4.23,9.16-2.11,1.43.97,2.13,2.18,2.19,3.49l.76-1.11,3.3,2.24-7.38,10.88-3.31-2.24.76-1.11c-1.24.43-2.62.23-4.05-.74-3.12-2.12-3.67-5.98-1.43-9.29ZM296.11,37.34c1.13-1.67.91-3.58-.7-4.68-1.58-1.07-3.4-.54-4.53,1.13-1.13,1.67-.95,3.56.63,4.63,1.62,1.1,3.47.59,4.61-1.08Z"/>
        <path class="cls-1" d="M307.39,37.64l3.02,2.62-.88,1.02c1.28-.28,2.6.05,3.87,1.16.56.48.89.83,1.16,1.3l-2.42,2.86c-.23-.59-.66-1.16-1.25-1.68-1.61-1.4-3.37-1.32-4.68.19l-4.41,5.09-3.02-2.62,8.61-9.93Z"/>
        <path class="cls-1" d="M320.93,55.33l-1.79-1.89-7.04,6.7-2.75-2.89,7.04-6.7-1.79-1.89,2.49-2.37,1.79,1.89,2.83-2.69,2.75,2.89-2.83,2.69,1.79,1.88-2.49,2.37Z"/>
        <path class="cls-1" d="M318.38,67.58l-2.52-3.1,10.24-8.33,2.52,3.1-10.24,8.33ZM331.93,57.13c-1.1.89-2.55.74-3.44-.35-.89-1.1-.74-2.55.35-3.44s2.55-.74,3.44.35.74,2.55-.35,3.44Z"/>
        <path class="cls-1" d="M335.06,75.25l-2.15-3.21c.6-.56.5-1.6-.15-2.57-.67-1.01-1.51-1.5-2-1.17-.54.36-.32,1.26.63,3.33,1.67,3.55,1.38,5.42-.5,6.68-2.24,1.5-5.19.07-7.05-2.71-1.91-2.85-1.94-5.97.28-7.61l2.15,3.21c-.63.59-.55,1.72.15,2.76.71,1.06,1.63,1.58,2.13,1.25.52-.35.36-1.32-.62-3.39-1.36-2.87-1.7-5.13.52-6.61,2.13-1.42,4.95-.1,6.81,2.68,1.82,2.72,1.88,5.79-.2,7.37Z"/>
        <path class="cls-1" d="M341.48,86.08l-1.22-2.3-8.59,4.54-1.86-3.53,8.59-4.54-1.22-2.3,3.04-1.6,1.22,2.3,3.45-1.82,1.87,3.53-3.45,1.82,1.22,2.3-3.04,1.6Z"/>
      </g>
      <path class="cls-1" d="M384.55,174.86c-.91-.56-1.83-1.12-2.76-1.69h3.09l.64-2.24h-2.38c-3.35,0-4.49-1.87-3.42-5.6l9.08-31.91c1.77-6.21,1.31-11.22-1.38-15.01-2.69-3.79-6.6-5.69-11.74-5.69-4.65,0-8.65.68-12.02,2.03-3.36,1.36-6.35,3.59-8.96,6.69-.93,1.3-1.79,2.71-2.58,4.25-.15-3.07-.86-5.51-2.14-7.32-2.69-3.77-6.61-5.66-11.75-5.66-4.65,0-8.65.68-12.02,2.03-3.36,1.36-6.35,3.59-8.96,6.69l1.56-5.49h-33.12l-.64,2.24h2.38c3.35,0,4.49,1.87,3.42,5.6l-.95,3.32c-9.34-3.98-18.93-7.89-28.72-11.72-.23-.1-.48-.19-.72-.28-8.01-3.13-16.15-6.21-24.41-9.21-57.87-21.08-114-36.23-158.05-42.68C46.14,58.56,6.86,56.51.77,73.24c-6.09,16.72,25.31,40.41,52.73,57.34,5.52,3.41,11.36,6.84,17.47,10.28l-14.96,52.55c-1.06,3.74-3.27,5.6-6.61,5.6h-2.38l-.64,2.24h40.51l.64-2.24h-2.38c-3.35,0-4.49-1.87-3.42-5.6l6.67-23.42c.86,4.29,4.44,6.43,10.74,6.43,7.43,0,14.24-2.79,20.42-8.38.58-.52,1.14-1.08,1.7-1.64,24.88,11.51,52.17,22.74,80.71,33.14,49.43,18,97.58,31.68,138.03,39.3.17,4.97,3.29,9.58,8.25,11.38,6.49,2.36,13.65-.95,16.07-7.41,11.52,1.56,23.73,2.71,34.85,2.71,18.81,0,34.45-3.27,38.11-13.32,6.09-16.72-25.31-40.41-52.73-57.34ZM352.5,129.34c1.1-3.11,2.47-5.58,4.12-7.43,1.98-2.12,4.04-3.19,6.19-3.19,2.61,0,3.19,3.15,1.75,9.44l-8.63,30.32c-3.33-1.78-6.73-3.56-10.2-5.35l6.77-23.79ZM314.68,130.46c1.01-3.54,2.5-6.38,4.49-8.52,1.98-2.14,4.05-3.22,6.2-3.22,2.61,0,3.19,3.15,1.75,9.44l-3.95,13.87c-3.42-1.62-6.89-3.23-10.4-4.84l1.92-6.73ZM101.41,165.21c-1.7,3.81-4.1,5.72-7.2,5.72-3.38-.39-4.74-2.71-4.09-6.96l3.18-11.16c3.52,1.8,7.11,3.59,10.76,5.38-1,2.96-1.88,5.31-2.64,7.01ZM112.79,124.3c-.24,3.64-1.75,10.33-4.53,20.09-1.01,3.56-1.95,6.72-2.82,9.49-3.7-1.82-7.34-3.64-10.9-5.47l6.82-23.96c1.63-3.74,4.01-5.6,7.14-5.6s4.53,1.82,4.28,5.46ZM433.05,230.66c-3.69,10.14-28.97,12.97-67.95,7.73-.01-5.12-3.16-9.93-8.26-11.79-6.52-2.38-13.73.99-16.11,7.51-.03.09-.06.19-.09.28-40.16-7.58-88.01-21.18-137.15-39.08-17.37-6.32-34.26-12.96-50.42-19.77,2.14.54,4.46.81,6.98.81,8.49,0,16.61-3.09,24.37-9.26,7.76-6.18,12.88-13.63,15.37-22.36,2.56-9.01,1.72-16.59-2.53-22.74-4.25-6.15-10.62-9.23-19.11-9.23s-16.66,3.08-24.42,9.23c-7.76,6.16-12.91,13.74-15.48,22.74-2.48,8.73-1.6,16.18,2.64,22.36,1.65,2.39,3.62,4.32,5.9,5.78-7.69-3.3-15.19-6.64-22.49-10.01,3.81-4.96,6.77-11.12,8.87-18.48,2.82-9.91,2.91-17.66.25-23.24-2.65-5.58-7.87-8.38-15.66-8.38-6.13,0-11.07,2.03-14.83,6.08l.82-2.89h-33.12l-.64,2.24h2.38c3.35,0,4.49,1.87,3.42,5.6l-3.59,12.62c-5.72-3.23-11.2-6.45-16.38-9.66C20.17,104.73,1.15,85.29,4.98,74.77c2.48-6.8,14.42-10.34,33.93-10.34,39.48,0,109.94,14.49,195.62,45.69,2.49.91,4.96,1.82,7.42,2.74-3.74.24-7.68.96-11.83,2.18-5.15,1.51-9.3,4.22-12.45,8.11-1.3,1.85-2.24,3.83-2.81,5.96-.91,3.18-.63,5.9.83,8.14,1.46,2.24,3.71,3.38,6.76,3.42,3.03,0,5.93-1.12,8.7-3.36,2.77-2.24,4.62-4.93,5.55-8.08.91-3.18.69-5.78-.64-7.79-.55-.67-1.19-.88-1.93-.65-.25.63-.63,1.15-1.13,1.56-.51.41-1.07.62-1.71.62-.7,0-1.23-.26-1.58-.77-.35-.51-.41-1.16-.19-1.95.42-1.22,1.37-2.22,2.86-3.01,3.11-1.14,6.3-1.71,9.57-1.71,5.81,0,7.79,3.24,5.95,9.73-.97,3.42-3.06,6.61-6.26,9.56-3.59,2.95-8.97,5.27-16.14,6.96-7.24,1.69-13.05,4.33-17.41,7.91-3.56,2.99-6.02,6.86-7.38,11.62-1.2,4.21-.56,7.71,1.93,10.5,3.47,3.03,7.98,4.54,13.55,4.54,6.97,0,13.23-1.87,18.76-5.6l-.69,2.42h33.12l.64-2.24h-2.38c-3.35,0-4.49-1.87-3.42-5.6l7.45-26.19c1.78-6.26,1.86-11.4.25-15.43,6.34,2.56,12.59,5.15,18.73,7.77l-9.64,33.86c-1.06,3.74-3.27,5.6-6.61,5.6h-2.38l-.64,2.24h37.87l.64-2.24h-2.38c-1.58,0-2.13-.88-1.62-2.65l7.6-26.72c3.52,1.61,6.98,3.23,10.4,4.85l-6.22,21.87c-.5,1.77-1.55,2.65-3.13,2.65h-2.38l-.64,2.24h35.23l.64-2.24h-2.38c-1.58,0-2.12-.88-1.62-2.65l3.06-10.74c3.47,1.79,6.87,3.57,10.2,5.36l-1.53,5.38c-.5,1.77-1.55,2.65-3.13,2.65h-2.38l-.64,2.24h26.02c3.14,1.84,6.2,3.68,9.16,5.5,35.68,22.03,54.7,41.47,50.87,51.99ZM159.34,165.71c.63-5.8,2.11-12.79,4.44-20.97,2.42-8.5,4.96-15.62,7.62-21.39,2.66-5.76,4.73-8.64,6.21-8.64s1.87,2.88,1.27,8.64c-.6,5.76-2.11,12.89-4.53,21.39-2.33,8.18-4.84,15.17-7.53,20.97-2.69,5.8-4.76,8.7-6.2,8.7s-1.9-2.9-1.27-8.7ZM245.3,134.47l-8.97,31.5c-2.12,2.87-4.73,4.56-7.84,5.07-3.42,0-4.47-2.3-3.16-6.9l1.76-6.19c1.7-5.98,4.69-10.83,8.95-14.57,3.85-3.62,6.93-6.59,9.25-8.91Z"/>
    </g>
  </g>
</svg>